<svg width="120" height="120" viewBox="0 0 120 120" fill="none" xmlns="http://www.w3.org/2000/svg">
  <!-- Background -->
  <rect width="120" height="120" rx="20" fill="url(#bgGradient)"/>
  
  <!-- Main calendar container -->
  <g transform="translate(15, 15)">
    <!-- Calendar base -->
    <rect x="0" y="0" width="90" height="90" rx="12" fill="white" stroke="#e5e7eb" stroke-width="2"/>
    
    <!-- Calendar header -->
    <rect x="0" y="0" width="90" height="18" rx="12" fill="url(#headerGradient)"/>
    
    <!-- Calendar grid -->
    <g stroke="#f3f4f6" stroke-width="1">
      <!-- Vertical lines -->
      <line x1="18" y1="18" x2="18" y2="90"/>
      <line x1="36" y1="18" x2="36" y2="90"/>
      <line x1="54" y1="18" x2="54" y2="90"/>
      <line x1="72" y1="18" x2="72" y2="90"/>
      <!-- Horizontal lines -->
      <line x1="0" y1="36" x2="90" y2="36"/>
      <line x1="0" y1="54" x2="90" y2="54"/>
      <line x1="0" y1="72" x2="90" y2="72"/>
    </g>
    
    <!-- Day indicators (dots) -->
    <circle cx="9" cy="9" r="2" fill="white"/>
    <circle cx="27" cy="9" r="2" fill="white"/>
    <circle cx="45" cy="9" r="2" fill="white"/>
    <circle cx="63" cy="9" r="2" fill="white"/>
    <circle cx="81" cy="9" r="2" fill="white"/>
    
    <!-- Booking slots - Row 1 -->
    <rect x="2" y="20" width="14" height="14" rx="3" fill="#10b981"/>
    <rect x="20" y="20" width="14" height="14" rx="3" fill="#f59e0b"/>
    <rect x="38" y="20" width="14" height="14" rx="3" fill="#ef4444"/>
    <rect x="56" y="20" width="14" height="14" rx="3" fill="#8b5cf6"/>
    <rect x="74" y="20" width="14" height="14" rx="3" fill="#06b6d4"/>
    
    <!-- Booking slots - Row 2 -->
    <rect x="2" y="38" width="14" height="14" rx="3" fill="#f59e0b"/>
    <rect x="20" y="38" width="14" height="14" rx="3" fill="#ef4444"/>
    <rect x="38" y="38" width="14" height="14" rx="3" fill="#8b5cf6"/>
    <rect x="56" y="38" width="14" height="14" rx="3" fill="#06b6d4"/>
    <rect x="74" y="38" width="14" height="14" rx="3" fill="#10b981"/>
    
    <!-- Booking slots - Row 3 -->
    <rect x="2" y="56" width="14" height="14" rx="3" fill="#ef4444"/>
    <rect x="20" y="56" width="14" height="14" rx="3" fill="#8b5cf6"/>
    <rect x="38" y="56" width="14" height="14" rx="3" fill="#06b6d4"/>
    <rect x="56" y="56" width="14" height="14" rx="3" fill="#10b981"/>
    <rect x="74" y="56" width="14" height="14" rx="3" fill="#f59e0b"/>
    
    <!-- Booking slots - Row 4 -->
    <rect x="2" y="74" width="14" height="14" rx="3" fill="#8b5cf6"/>
    <rect x="20" y="74" width="14" height="14" rx="3" fill="#06b6d4"/>
    <rect x="38" y="74" width="14" height="14" rx="3" fill="#10b981"/>
    <rect x="56" y="74" width="14" height="14" rx="3" fill="#f59e0b"/>
    <rect x="74" y="74" width="14" height="14" rx="3" fill="#ef4444"/>
  </g>
  
  <!-- Color legend -->
  <g transform="translate(60, 105)">
    <circle cx="-20" cy="0" r="4" fill="#10b981"/>
    <circle cx="-10" cy="0" r="4" fill="#f59e0b"/>
    <circle cx="0" cy="0" r="4" fill="#ef4444"/>
    <circle cx="10" cy="0" r="4" fill="#8b5cf6"/>
    <circle cx="20" cy="0" r="4" fill="#06b6d4"/>
  </g>
  
  <!-- Gradients -->
  <defs>
    <linearGradient id="bgGradient" x1="0%" y1="0%" x2="100%" y2="100%">
      <stop offset="0%" style="stop-color:#1e40af;stop-opacity:1" />
      <stop offset="100%" style="stop-color:#3730a3;stop-opacity:1" />
    </linearGradient>
    <linearGradient id="headerGradient" x1="0%" y1="0%" x2="100%" y2="100%">
      <stop offset="0%" style="stop-color:#3b82f6;stop-opacity:1" />
      <stop offset="100%" style="stop-color:#1d4ed8;stop-opacity:1" />
    </linearGradient>
  </defs>
</svg> 